<svg width="83" height="95" viewBox="0 0 83 95" fill="none" xmlns="http://www.w3.org/2000/svg">
<path d="M3.375 17.3481H16.875L25.92 62.5393C26.2286 64.0931 27.0739 65.4889 28.308 66.4823C29.542 67.4757 31.0861 68.0034 32.67 67.9731H65.475C67.0589 68.0034 68.603 67.4757 69.837 66.4823C71.0711 65.4889 71.9164 64.0931 72.225 62.5393L77.625 34.2231H20.25M33.75 84.8481C33.75 86.712 32.239 88.2231 30.375 88.2231C28.511 88.2231 27 86.712 27 84.8481C27 82.9841 28.511 81.4731 30.375 81.4731C32.239 81.4731 33.75 82.9841 33.75 84.8481ZM70.875 84.8481C70.875 86.712 69.364 88.2231 67.5 88.2231C65.636 88.2231 64.125 86.712 64.125 84.8481C64.125 82.9841 65.636 81.4731 67.5 81.4731C69.364 81.4731 70.875 82.9841 70.875 84.8481Z" stroke="#D9B382" stroke-width="4" stroke-linecap="round" stroke-linejoin="round"/>
<path d="M55.1916 10.7796C55.4645 10.4777 55.9647 10.611 56.0512 11.0086L59.5946 27.2867C59.7298 27.9081 60.0326 28.481 60.469 28.9436L71.6731 40.8239C71.9276 41.094 71.8095 41.5371 71.4544 41.6449L55.8248 46.3766C55.2161 46.5609 54.6682 46.9081 54.2417 47.3799L43.0698 59.7378C42.7969 60.0393 42.2968 59.9062 42.2101 59.5088L38.6668 43.2307C38.5315 42.6093 38.2299 42.0358 37.7935 41.5731L26.5885 29.6926C26.3343 29.4225 26.4522 28.9794 26.8072 28.8716L42.4377 24.1401C43.0462 23.9558 43.5932 23.6092 44.0196 23.1375L55.1916 10.7796Z" fill="#501313" stroke="#D9B382" stroke-width="3"/>
</svg>
