<svg width="85" height="81" viewBox="0 0 85 81" fill="none" xmlns="http://www.w3.org/2000/svg">
<path d="M74.375 20.25V67.5C74.375 69.2902 73.6287 71.0071 72.3003 72.273C70.972 73.5388 69.1703 74.25 67.2917 74.25H17.7083C15.8297 74.25 14.028 73.5388 12.6997 72.273C11.3713 71.0071 10.625 69.2902 10.625 67.5V20.25L21.25 6.75H63.75L74.375 20.25ZM10.625 20.25H74.375M56.6667 33.75C56.6667 37.3304 55.1741 40.7642 52.5173 43.2959C49.8606 45.8277 46.2572 47.25 42.5 47.25C38.7428 47.25 35.1394 45.8277 32.4827 43.2959C29.8259 40.7642 28.3333 37.3304 28.3333 33.75" stroke="#D9B382" stroke-width="4" stroke-linecap="round" stroke-linejoin="round"/>
</svg>
